<mxfile host="app.diagrams.net" modified="2023-05-26T19:05:26.058Z" agent="Mozilla/5.0 (Windows NT 10.0; Win64; x64; rv:109.0) Gecko/20100101 Firefox/113.0" etag="SGIxmvX7ZXdERfy9gxUQ" version="21.3.2" type="device">
  <diagram name="Страница 1" id="y11Da2P-QhLi7fxHs2Nu">
    <mxGraphModel dx="947" dy="492" grid="1" gridSize="10" guides="1" tooltips="1" connect="1" arrows="1" fold="1" page="1" pageScale="1" pageWidth="827" pageHeight="1169" math="0" shadow="0">
      <root>
        <mxCell id="0" />
        <mxCell id="1" parent="0" />
        <mxCell id="140ceAmrGku_LC3vfMSd-1" value="Пользователь" style="shape=umlActor;verticalLabelPosition=bottom;verticalAlign=top;html=1;outlineConnect=0;" vertex="1" parent="1">
          <mxGeometry x="120" y="280" width="40" height="80" as="geometry" />
        </mxCell>
        <mxCell id="140ceAmrGku_LC3vfMSd-26" style="edgeStyle=orthogonalEdgeStyle;rounded=0;orthogonalLoop=1;jettySize=auto;html=1;exitX=1;exitY=0.5;exitDx=0;exitDy=0;entryX=0.5;entryY=0;entryDx=0;entryDy=0;" edge="1" parent="1" source="140ceAmrGku_LC3vfMSd-3" target="140ceAmrGku_LC3vfMSd-12">
          <mxGeometry relative="1" as="geometry" />
        </mxCell>
        <mxCell id="140ceAmrGku_LC3vfMSd-3" value="Модуль преобразования логов в таблицу базы данных" style="rounded=0;whiteSpace=wrap;html=1;" vertex="1" parent="1">
          <mxGeometry x="200" y="190" width="140" height="60" as="geometry" />
        </mxCell>
        <mxCell id="140ceAmrGku_LC3vfMSd-10" style="edgeStyle=orthogonalEdgeStyle;rounded=0;orthogonalLoop=1;jettySize=auto;html=1;exitX=0;exitY=0.5;exitDx=0;exitDy=0;startArrow=classic;" edge="1" parent="1" source="140ceAmrGku_LC3vfMSd-4" target="140ceAmrGku_LC3vfMSd-1">
          <mxGeometry relative="1" as="geometry" />
        </mxCell>
        <mxCell id="140ceAmrGku_LC3vfMSd-13" style="edgeStyle=orthogonalEdgeStyle;rounded=0;orthogonalLoop=1;jettySize=auto;html=1;" edge="1" parent="1" source="140ceAmrGku_LC3vfMSd-4" target="140ceAmrGku_LC3vfMSd-3">
          <mxGeometry relative="1" as="geometry" />
        </mxCell>
        <mxCell id="140ceAmrGku_LC3vfMSd-4" value="&lt;div&gt;Пользовательский&lt;/div&gt;&amp;nbsp;интерфейс" style="rounded=0;whiteSpace=wrap;html=1;" vertex="1" parent="1">
          <mxGeometry x="200" y="290" width="140" height="60" as="geometry" />
        </mxCell>
        <mxCell id="140ceAmrGku_LC3vfMSd-16" style="edgeStyle=orthogonalEdgeStyle;rounded=0;orthogonalLoop=1;jettySize=auto;html=1;startArrow=classic;" edge="1" parent="1" source="140ceAmrGku_LC3vfMSd-5" target="140ceAmrGku_LC3vfMSd-4">
          <mxGeometry relative="1" as="geometry" />
        </mxCell>
        <mxCell id="140ceAmrGku_LC3vfMSd-5" value="Модуль вычисления часто встречающихся последовательностей" style="rounded=0;whiteSpace=wrap;html=1;" vertex="1" parent="1">
          <mxGeometry x="200" y="390" width="140" height="60" as="geometry" />
        </mxCell>
        <mxCell id="140ceAmrGku_LC3vfMSd-18" style="edgeStyle=orthogonalEdgeStyle;rounded=0;orthogonalLoop=1;jettySize=auto;html=1;exitX=0;exitY=0.5;exitDx=0;exitDy=0;startArrow=classic;" edge="1" parent="1" source="140ceAmrGku_LC3vfMSd-12" target="140ceAmrGku_LC3vfMSd-4">
          <mxGeometry relative="1" as="geometry" />
        </mxCell>
        <mxCell id="140ceAmrGku_LC3vfMSd-21" style="edgeStyle=orthogonalEdgeStyle;rounded=0;orthogonalLoop=1;jettySize=auto;html=1;exitX=0.5;exitY=1;exitDx=0;exitDy=0;entryX=1;entryY=0.5;entryDx=0;entryDy=0;" edge="1" parent="1" source="140ceAmrGku_LC3vfMSd-12" target="140ceAmrGku_LC3vfMSd-5">
          <mxGeometry relative="1" as="geometry" />
        </mxCell>
        <mxCell id="140ceAmrGku_LC3vfMSd-25" style="edgeStyle=orthogonalEdgeStyle;rounded=0;orthogonalLoop=1;jettySize=auto;html=1;startArrow=classic;" edge="1" parent="1" source="140ceAmrGku_LC3vfMSd-12" target="140ceAmrGku_LC3vfMSd-22">
          <mxGeometry relative="1" as="geometry" />
        </mxCell>
        <mxCell id="140ceAmrGku_LC3vfMSd-12" value="&lt;div&gt;Модуль взаимодействия с базами данных&lt;/div&gt;" style="rounded=0;whiteSpace=wrap;html=1;" vertex="1" parent="1">
          <mxGeometry x="380" y="290" width="140" height="60" as="geometry" />
        </mxCell>
        <mxCell id="140ceAmrGku_LC3vfMSd-22" value="Базы данных" style="rounded=0;whiteSpace=wrap;html=1;" vertex="1" parent="1">
          <mxGeometry x="560" y="290" width="140" height="60" as="geometry" />
        </mxCell>
      </root>
    </mxGraphModel>
  </diagram>
</mxfile>
